<svg width="250" height="250" viewBox="0 0 250 250" fill="none" xmlns="http://www.w3.org/2000/svg">
<g clip-path="url(#clip0_899_317)">
<path fill-rule="evenodd" clip-rule="evenodd" d="M93.75 20.8333C134.021 20.8333 166.667 53.4793 166.667 93.75C166.667 134.021 134.021 166.667 93.75 166.667C84.9976 166.667 76.6274 165.129 68.8799 162.318C65.4649 161.08 61.6674 160.802 57.9633 161.712C48.0144 164.156 37.858 165.706 27.6152 166.339C31.4669 156.191 32.7977 145.22 31.4436 134.383C31.1424 131.973 30.354 129.859 29.4173 128.109C23.9423 117.882 20.8333 106.195 20.8333 93.75C20.8333 53.4793 53.4792 20.8333 93.75 20.8333ZM187.5 93.75C187.5 41.9733 145.527 0 93.75 0C41.9733 0 0 41.9733 0 93.75C0 109.549 3.91644 124.464 10.8397 137.546C11.9203 147.19 9.91794 156.96 5.07637 165.433L4.64912 166.181C-0.779172 175.68 6.08003 187.5 17.0212 187.5C32.3114 187.5 47.5138 185.678 62.3117 182.096C72.1526 185.598 82.7403 187.5 93.75 187.5C145.527 187.5 187.5 145.527 187.5 93.75ZM212.033 86.0221C207.636 89.7315 207.078 96.3034 210.788 100.701C222.261 114.302 229.167 131.852 229.167 151.042C229.167 164.402 225.822 176.95 219.932 187.925C218.988 189.684 218.204 191.796 217.901 194.193C216.412 205.97 217.936 217.901 222.283 228.878C210.967 228.241 199.746 226.555 188.762 223.848C185.055 222.934 181.248 223.209 177.821 224.459C169.482 227.502 160.468 229.167 151.042 229.167C131.852 229.167 114.302 222.261 100.701 210.788C96.3034 207.079 89.7315 207.636 86.0221 212.034C82.3126 216.431 82.8703 223.003 87.2677 226.712C104.486 241.237 126.754 250 151.042 250C162.732 250 173.971 247.968 184.409 244.23C200.141 248.055 216.307 250 232.566 250C243.691 250 250.665 237.982 245.146 228.322L245.146 228.322L244.692 227.528C239.459 218.37 237.306 207.803 238.501 197.38C245.844 183.545 250 167.763 250 151.042C250 126.754 241.237 104.486 226.712 87.2677C223.003 82.8704 216.431 82.3127 212.033 86.0221ZM52.0833 104.167C57.8363 104.167 62.5 99.503 62.5 93.75C62.5 87.9971 57.8363 83.3334 52.0833 83.3334C46.3304 83.3334 41.6667 87.9971 41.6667 93.75C41.6667 99.503 46.3304 104.167 52.0833 104.167ZM104.167 93.75C104.167 99.503 99.503 104.167 93.75 104.167C87.997 104.167 83.3333 99.503 83.3333 93.75C83.3333 87.9971 87.997 83.3334 93.75 83.3334C99.503 83.3334 104.167 87.9971 104.167 93.75ZM135.417 104.167C141.17 104.167 145.833 99.503 145.833 93.75C145.833 87.9971 141.17 83.3334 135.417 83.3334C129.664 83.3334 125 87.9971 125 93.75C125 99.503 129.664 104.167 135.417 104.167Z" fill="white"/>
</g>
<defs>
<clipPath id="clip0_899_317">
<rect width="250" height="250" fill="white"/>
</clipPath>
</defs>
</svg>
