<svg width="250" height="250" viewBox="0 0 250 250" fill="none" xmlns="http://www.w3.org/2000/svg">
<path d="M133.409 158.88L82.6621 168.015L91.1199 116.591L188.046 20.0036C189.618 18.4181 191.489 17.1597 193.551 16.3009C195.612 15.4421 197.823 15 200.056 15C202.289 15 204.5 15.4421 206.561 16.3009C208.623 17.1597 210.493 18.4181 212.066 20.0036L229.996 37.9341C231.582 39.5066 232.84 41.3774 233.699 43.4388C234.558 45.5001 235 47.711 235 49.9441C235 52.1771 234.558 54.3881 233.699 56.4494C232.84 58.5107 231.582 60.3816 229.996 61.9541L133.409 158.88Z" stroke="black" stroke-width="26" stroke-linecap="round" stroke-linejoin="round"/>
<path d="M209.529 167.338V218.084C209.529 222.571 207.746 226.873 204.574 230.045C201.402 233.218 197.099 235 192.613 235H31.9155C27.4293 235 23.1267 233.218 19.9544 230.045C16.7822 226.873 15 222.571 15 218.084V57.3868C15 52.9006 16.7822 48.598 19.9544 45.4258C23.1267 42.2535 27.4293 40.4713 31.9155 40.4713H82.6621" stroke="black" stroke-width="26" stroke-linecap="round" stroke-linejoin="round"/>
</svg>
