<svg width="70" height="17" viewBox="0 0 70 17" fill="none" xmlns="http://www.w3.org/2000/svg">
<g clip-path="url(#clip0_3985_420)">
<circle cx="4.5" cy="8.5" r="4.5" fill="#D92B35"/>
<path d="M22.0949 8.90909C22.0949 9.99621 21.896 10.9309 21.4983 11.7131C21.1006 12.492 20.5554 13.0919 19.8627 13.5128C19.1733 13.9304 18.3894 14.1392 17.5111 14.1392C16.6295 14.1392 15.8423 13.9304 15.1496 13.5128C14.4602 13.0919 13.9166 12.4903 13.5189 11.7081C13.1212 10.9259 12.9223 9.9929 12.9223 8.90909C12.9223 7.82197 13.1212 6.88897 13.5189 6.11008C13.9166 5.32789 14.4602 4.72798 15.1496 4.31037C15.8423 3.88944 16.6295 3.67898 17.5111 3.67898C18.3894 3.67898 19.1733 3.88944 19.8627 4.31037C20.5554 4.72798 21.1006 5.32789 21.4983 6.11008C21.896 6.88897 22.0949 7.82197 22.0949 8.90909ZM20.5736 8.90909C20.5736 8.08049 20.4394 7.38281 20.1709 6.81605C19.9057 6.24598 19.5412 5.8151 19.0771 5.52344C18.6164 5.22846 18.0944 5.08097 17.5111 5.08097C16.9244 5.08097 16.4008 5.22846 15.9401 5.52344C15.4794 5.8151 15.1148 6.24598 14.8463 6.81605C14.5812 7.38281 14.4486 8.08049 14.4486 8.90909C14.4486 9.73769 14.5812 10.437 14.8463 11.0071C15.1148 11.5739 15.4794 12.0047 15.9401 12.2997C16.4008 12.5914 16.9244 12.7372 17.5111 12.7372C18.0944 12.7372 18.6164 12.5914 19.0771 12.2997C19.5412 12.0047 19.9057 11.5739 20.1709 11.0071C20.4394 10.437 20.5736 9.73769 20.5736 8.90909ZM24.0102 14V3.81818H30.3241V5.14062H25.5464V8.2429H29.8717V9.56037H25.5464V14H24.0102ZM32.2133 14V3.81818H38.5273V5.14062H33.7496V8.2429H38.0748V9.56037H33.7496V14H32.2133ZM40.4165 14V3.81818H41.9527V12.6776H46.5663V14H40.4165ZM49.855 3.81818V14H48.3188V3.81818H49.855ZM60.3103 3.81818V14H58.8983L53.7229 6.53267H53.6285V14H52.0922V3.81818H53.5141L58.6945 11.2955H58.789V3.81818H60.3103ZM62.5512 14V3.81818H68.9347V5.14062H64.0874V8.2429H68.6017V9.56037H64.0874V12.6776H68.9944V14H62.5512Z" fill="#D92B35"/>
</g>
<defs>
<clipPath id="clip0_3985_420">
<rect width="70" height="17" fill="white"/>
</clipPath>
</defs>
</svg>
