<svg width="64" height="17" viewBox="0 0 64 17" fill="none" xmlns="http://www.w3.org/2000/svg">
<g clip-path="url(#clip0_3985_421)">
<circle cx="4.5" cy="8.5" r="4.5" fill="#27AE62"/>
<path d="M21.9631 8.90909C21.9631 9.99621 21.7642 10.9309 21.3665 11.7131C20.9688 12.492 20.4235 13.0919 19.7308 13.5128C19.0414 13.9304 18.2576 14.1392 17.3793 14.1392C16.4976 14.1392 15.7105 13.9304 15.0178 13.5128C14.3284 13.0919 13.7848 12.4903 13.3871 11.7081C12.9893 10.9259 12.7905 9.9929 12.7905 8.90909C12.7905 7.82197 12.9893 6.88897 13.3871 6.11008C13.7848 5.32789 14.3284 4.72798 15.0178 4.31037C15.7105 3.88944 16.4976 3.67898 17.3793 3.67898C18.2576 3.67898 19.0414 3.88944 19.7308 4.31037C20.4235 4.72798 20.9688 5.32789 21.3665 6.11008C21.7642 6.88897 21.9631 7.82197 21.9631 8.90909ZM20.4418 8.90909C20.4418 8.08049 20.3075 7.38281 20.0391 6.81605C19.7739 6.24598 19.4093 5.8151 18.9453 5.52344C18.4846 5.22846 17.9626 5.08097 17.3793 5.08097C16.7926 5.08097 16.2689 5.22846 15.8082 5.52344C15.3475 5.8151 14.983 6.24598 14.7145 6.81605C14.4493 7.38281 14.3168 8.08049 14.3168 8.90909C14.3168 9.73769 14.4493 10.437 14.7145 11.0071C14.983 11.5739 15.3475 12.0047 15.8082 12.2997C16.2689 12.5914 16.7926 12.7372 17.3793 12.7372C17.9626 12.7372 18.4846 12.5914 18.9453 12.2997C19.4093 12.0047 19.7739 11.5739 20.0391 11.0071C20.3075 10.437 20.4418 9.73769 20.4418 8.90909ZM32.0964 3.81818V14H30.6845L25.5091 6.53267H25.4146V14H23.8784V3.81818H25.3002L30.4806 11.2955H30.5751V3.81818H32.0964ZM34.3374 14V3.81818H35.8736V12.6776H40.4872V14H34.3374ZM43.7759 3.81818V14H42.2397V3.81818H43.7759ZM54.2312 3.81818V14H52.8192L47.6438 6.53267H47.5494V14H46.0131V3.81818H47.435L52.6154 11.2955H52.7099V3.81818H54.2312ZM56.4721 14V3.81818H62.8556V5.14062H58.0083V8.2429H62.5225V9.56037H58.0083V12.6776H62.9153V14H56.4721Z" fill="#27AE62"/>
</g>
<defs>
<clipPath id="clip0_3985_421">
<rect width="64" height="17" fill="white"/>
</clipPath>
</defs>
</svg>
