<svg width="250" height="250" viewBox="0 0 250 250" fill="none" xmlns="http://www.w3.org/2000/svg">
<g clip-path="url(#clip0_4351_642)">
<path d="M232.143 142.857H142.857V232.143C142.857 236.879 140.976 241.421 137.627 244.77C134.278 248.119 129.736 250 125 250C120.264 250 115.722 248.119 112.373 244.77C109.024 241.421 107.143 236.879 107.143 232.143V142.857H17.8571C13.1211 142.857 8.5791 140.976 5.23024 137.627C1.88138 134.278 0 129.736 0 125C0 120.264 1.88138 115.722 5.23024 112.373C8.5791 109.024 13.1211 107.143 17.8571 107.143H107.143V17.8571C107.143 13.1211 109.024 8.5791 112.373 5.23023C115.722 1.88137 120.264 0 125 0C129.736 0 134.278 1.88137 137.627 5.23023C140.976 8.5791 142.857 13.1211 142.857 17.8571V107.143H232.143C236.879 107.143 241.421 109.024 244.77 112.373C248.119 115.722 250 120.264 250 125C250 129.736 248.119 134.278 244.77 137.627C241.421 140.976 236.879 142.857 232.143 142.857Z" fill="#393939"/>
</g>
<defs>
<clipPath id="clip0_4351_642">
<rect width="250" height="250" fill="white"/>
</clipPath>
</defs>
</svg>