<svg width="24" height="19" viewBox="0 0 24 19" fill="none" xmlns="http://www.w3.org/2000/svg">
<path d="M11.5119 0C8.28581 0 5.70253 1.56071 3.82196 3.4183C1.95337 5.25893 0.703657 7.46429 0.112736 8.97835C-0.0190238 9.31339 -0.0190238 9.68661 0.112736 10.0217C0.703657 11.5357 1.95337 13.7411 3.82196 15.5817C5.70253 17.4393 8.28581 19 11.5119 19C14.738 19 17.3213 17.4393 19.2019 15.5817C21.0705 13.7368 22.3202 11.5357 22.9151 10.0217C23.0469 9.68661 23.0469 9.31339 22.9151 8.97835C22.3202 7.46429 21.0705 5.25893 19.2019 3.4183C17.3213 1.56071 14.738 0 11.5119 0ZM5.76242 9.5C5.76242 7.88028 6.36817 6.32691 7.44641 5.1816C8.52465 4.03629 9.98706 3.39286 11.5119 3.39286C13.0368 3.39286 14.4992 4.03629 15.5774 5.1816C16.6557 6.32691 17.2614 7.88028 17.2614 9.5C17.2614 11.1197 16.6557 12.6731 15.5774 13.8184C14.4992 14.9637 13.0368 15.6071 11.5119 15.6071C9.98706 15.6071 8.52465 14.9637 7.44641 13.8184C6.36817 12.6731 5.76242 11.1197 5.76242 9.5ZM11.5119 6.78571C11.5119 8.28281 10.366 9.5 8.95659 9.5C8.6731 9.5 8.4016 9.44911 8.14607 9.36004C7.92647 9.2837 7.67093 9.4279 7.67892 9.67388C7.6909 9.96652 7.73082 10.2592 7.80669 10.5518C8.35369 12.7232 10.4578 14.0125 12.5021 13.4315C14.5464 12.8504 15.7602 10.6154 15.2132 8.44397C14.77 6.68393 13.3046 5.50067 11.6756 5.42857C11.444 5.42009 11.3083 5.68728 11.3802 5.92478C11.464 6.1962 11.5119 6.4846 11.5119 6.78571Z" fill="white"/>
</svg>
