<svg width="23" height="20" viewBox="0 0 23 20" fill="none" xmlns="http://www.w3.org/2000/svg">
<path d="M11.5052 4.5C14.392 4.5 16.7349 6.74 16.7349 9.5C16.7349 10.15 16.5989 10.76 16.3583 11.33L19.4125 14.25C20.9918 12.99 22.2365 11.36 23 9.5C21.1905 5.11 16.7244 2 11.4948 2C10.0305 2 8.62892 2.25 7.33197 2.7L9.59118 4.86C10.1874 4.63 10.8254 4.5 11.5052 4.5ZM1.04593 1.77L3.43065 4.05L3.91178 4.51C2.17553 5.8 0.815825 7.52 0 9.5C1.80946 13.89 6.27558 17 11.5052 17C13.1264 17 14.6744 16.7 16.0864 16.16L16.5257 16.58L19.5903 19.5L20.9186 18.23L2.37426 0.5L1.04593 1.77ZM6.82992 7.3L8.45111 8.85C8.39882 9.06 8.36744 9.28 8.36744 9.5C8.36744 11.16 9.76899 12.5 11.5052 12.5C11.7353 12.5 11.9654 12.47 12.1851 12.42L13.8063 13.97C13.1055 14.3 12.3315 14.5 11.5052 14.5C8.61846 14.5 6.27558 12.26 6.27558 9.5C6.27558 8.71 6.48477 7.97 6.82992 7.3ZM11.3379 6.52L14.6326 9.67L14.6535 9.51C14.6535 7.85 13.2519 6.51 11.5157 6.51L11.3379 6.52Z" fill="white"/>
</svg>
