<svg width="250" height="250" viewBox="0 0 250 250" fill="none" xmlns="http://www.w3.org/2000/svg">
<g clip-path="url(#clip0_22_20)">
<circle cx="125" cy="125" r="125" fill="#393939"/>
<path d="M78.6369 71.5749C107.851 50.7085 149.603 52.414 176.614 75.6199C204.097 99.2182 207.852 137.789 185.248 165.402C163.948 191.415 125.553 199.988 93.5812 186.57L91.8424 185.808L59.0535 192.834L58.4914 192.932L57.667 193L56.8201 192.97L56.4903 192.932L55.6659 192.781L54.879 192.525L54.1295 192.193L53.5599 191.876L52.7505 191.294L52.1435 190.736L51.5964 190.11L51.1991 189.544L50.712 188.676L50.3972 187.876L50.1649 187.023L50.0675 186.457L50 185.627L50.03 184.774L50.0675 184.442L50.2173 183.612L50.3822 183.069L59.001 157.025L58.8361 156.754C42.2731 128.476 49.7752 93.4224 76.9057 72.8503L78.6294 71.5825L78.6369 71.5749Z" fill="white"/>
</g>
<defs>
<clipPath id="clip0_22_20">
<rect width="250" height="250" fill="white"/>
</clipPath>
</defs>
</svg>
